<?xml version="1.0" standalone="no"?><svg xmlns="http://www.w3.org/2000/svg" viewBox="0 0 1440 320"><path fill="#34b7a7" fill-opacity="1" d="M0,192L16,192C32,192,64,192,96,202.7C128,213,160,235,192,245.3C224,256,256,256,288,256C320,256,352,256,384,240C416,224,448,192,480,192C512,192,544,224,576,229.3C608,235,640,213,672,192C704,171,736,149,768,144C800,139,832,149,864,165.3C896,181,928,203,960,218.7C992,235,1024,245,1056,245.3C1088,245,1120,235,1152,224C1184,213,1216,203,1248,176C1280,149,1312,107,1344,80C1376,53,1408,43,1424,37.3L1440,32L1440,0L1424,0C1408,0,1376,0,1344,0C1312,0,1280,0,1248,0C1216,0,1184,0,1152,0C1120,0,1088,0,1056,0C1024,0,992,0,960,0C928,0,896,0,864,0C832,0,800,0,768,0C736,0,704,0,672,0C640,0,608,0,576,0C544,0,512,0,480,0C448,0,416,0,384,0C352,0,320,0,288,0C256,0,224,0,192,0C160,0,128,0,96,0C64,0,32,0,16,0L0,0Z"></path></svg>